# xmcd
#
# Track frame offsets: 
#        150
#        18412
#        33040
#        51160
#        73072
#        88220
#        102425
#        135257
#        155287
#        177902
#        209512
#        240815
#        258242
#
# Disc length: 3672 seconds
#
# Revision: 1
# Processed by: cddbd v1.5.1PL2 Copyright (c) Steve Scherf et al.
# Submitted via: ExactAudioCopy v0.95b3
#
DISCID=a30e560d
DTITLE=many artist - Jazz Guitar best
DYEAR=2002
DGENRE=Jazz
TTITLE0=Lover - Tal Farlow
TTITLE1=Moonlight in Vermont - Johnny Smith
TTITLE2=Midnight Blue - Kenny Burrell
TTITLE3=Summertime - Wes Montgomery
TTITLE4=Django - Joe Pass
TTITLE5=Stella by Starlight - Jim Hall
TTITLE6=I Want to Hold Your Hand - Grant Green
TTITLE7=Good Time Charlie's Got the Blues - Earl Klugh
TTITLE8=Rhapsody of Fire - Al di Meola
TTITLE9=Eleanor Rigby - Stanley Jordan
TTITLE10=You Speak My Language - John Scofield and Pat Metheny
TTITLE11=You Don't Know What Love is - Charlie Hunter and Leon Parker
TTITLE12=No Pay, No Pay - Ronny Jordan
EXTD=YEAR: 2002
EXTT0=
EXTT1=
EXTT2=
EXTT3=
EXTT4=
EXTT5=
EXTT6=
EXTT7=
EXTT8=
EXTT9=
EXTT10=
EXTT11=
EXTT12=
PLAYORDER=
